<svg id="Layer_1" data-name="Layer 1" xmlns="http://www.w3.org/2000/svg" viewBox="0 0 698 697.08"><defs><style>.cls-1{fill:#fff;}.cls-2{isolation:isolate;}.cls-3{fill:none;stroke:#141414;stroke-width:2px;}.cls-4{fill:#00e394;}</style></defs><g id="Group_3156" data-name="Group 3156"><path id="Path_5360" data-name="Path 5360" class="cls-1" d="M357.84.35C391.19,3,420,20.65,445.32,45.78Q551.56,151.35,657.2,257.53a228,228,0,0,1,18.46,20.6c11.52,14.8,18.12,31.86,21.24,50.29.77,4.58,1.21,28.25,1.07,29.32-.75,5.54-1,11.18-2.17,16.62a116.13,116.13,0,0,1-32,58.4Q549.59,546.92,435.38,661.14a103.36,103.36,0,0,1-10.68,9.59c-28.24,21.29-59.55,30.41-95,24.66-24.75-4-46.15-14.53-63.75-32Q158.82,556.73,52.15,449.63c-9.4-9.42-19-18.68-27.61-28.83C9.56,403.08,2.23,381.8.35,359a137,137,0,0,1,2-34.19C6,303.56,15.19,284.4,30.44,269q77.82-78.49,156.25-156.37C225.32,74.14,266.11,16.11,321.88,3.19A116.94,116.94,0,0,1,357.84.35Z"/><g id="_" data-name=" " class="cls-2"><g class="cls-2"><path class="cls-3" d="M65.5,157.89V122.64L78,92.89h25.75l-8,28.75h15.5v36.25Zm57.25,0V122.64l12.5-29.75H161l-8,28.75h15.5v36.25Z"/></g></g><g id="_2" data-name=" 2" class="cls-2"><g class="cls-2"><path class="cls-4" d="M61.5,154.89V119.64L74,89.89H99.75l-8,28.75h15.5v36.25Zm57.25,0V119.64l12.5-29.75H157l-8,28.75h15.5v36.25Z"/></g></g><g id="Group_527" data-name="Group 527"><g id="_3" data-name=" 3" class="cls-2"><g class="cls-2"><path class="cls-3" d="M573.25,534.39v35.25l-12.5,29.75H535l8-28.75H527.5V534.39Zm57.25,0v35.25L618,599.39H592.25l8-28.75h-15.5V534.39Z"/></g></g><g id="_4" data-name=" 4" class="cls-2"><g class="cls-2"><path class="cls-4" d="M577.25,537.39v35.25l-12.5,29.75H539l8-28.75H531.5V537.39Zm57.25,0v35.25L622,602.39H596.25l8-28.75h-15.5V537.39Z"/></g></g></g></g></svg>