<svg xmlns="http://www.w3.org/2000/svg" xmlns:xlink="http://www.w3.org/1999/xlink" viewBox="0 0 1325.29 1446.95"><defs><style>.cls-1{fill:#1c477a;}.cls-2{fill:#4d88ce;}.cls-3{fill:#2e5ea0;}.cls-4{fill:#d85030;}.cls-5{fill:#ed6b47;}.cls-6{fill:#e2e2e2;}.cls-7{fill:#312b30;}.cls-8{fill:#ffc0c2;}.cls-51,.cls-9{fill:#fff;}.cls-10{fill:url(#linear-gradient);}.cls-11{fill:url(#linear-gradient-2);}.cls-12{fill:#f29ea4;}.cls-13{fill:url(#linear-gradient-3);}.cls-14{fill:url(#linear-gradient-4);}.cls-15{fill:url(#linear-gradient-5);}.cls-16{fill:url(#linear-gradient-6);}.cls-17{fill:url(#linear-gradient-7);}.cls-18{fill:#f6bec1;}.cls-19{fill:#23538c;}.cls-20{fill:#f29da4;}.cls-21{fill:#765843;}.cls-22{fill:url(#linear-gradient-8);}.cls-23{fill:url(#linear-gradient-9);}.cls-24{fill:url(#linear-gradient-10);}.cls-25{fill:#a85649;}.cls-26{fill:#91453a;}.cls-27{fill:#bb6453;}.cls-28{fill:url(#linear-gradient-11);}.cls-29{fill:url(#linear-gradient-12);}.cls-30{fill:url(#linear-gradient-13);}.cls-31{fill:url(#linear-gradient-14);}.cls-32{fill:url(#linear-gradient-15);}.cls-33{fill:url(#linear-gradient-16);}.cls-34{fill:url(#linear-gradient-17);}.cls-35{fill:url(#linear-gradient-18);}.cls-36{fill:url(#linear-gradient-19);}.cls-37{fill:#a8a8a8;}.cls-38{fill:#593e32;}.cls-39{fill:#ec6b48;}.cls-40{fill:url(#linear-gradient-20);}.cls-41{fill:url(#linear-gradient-21);}.cls-42{fill:url(#linear-gradient-22);}.cls-43{fill:url(#linear-gradient-23);}.cls-44{fill:url(#linear-gradient-24);}.cls-45{fill:#ef5233;}.cls-46{fill:url(#linear-gradient-25);}.cls-47{fill:url(#linear-gradient-26);}.cls-48{fill:url(#linear-gradient-27);}.cls-49{fill:#99ddda;opacity:0.3;}.cls-50{fill:url(#linear-gradient-28);}.cls-51{opacity:0.5;}.cls-52{fill:url(#linear-gradient-29);}</style><linearGradient id="linear-gradient" x1="4705.25" y1="1356.14" x2="4796.68" y2="1356.14" gradientTransform="matrix(-1, -0.06, -0.06, 1, 5692.74, 114.69)" gradientUnits="userSpaceOnUse"><stop offset="0" stop-color="#191519"/><stop offset="0.65" stop-color="#312b30"/></linearGradient><linearGradient id="linear-gradient-2" x1="4768.74" y1="1398.07" x2="4915.44" y2="1398.07" xlink:href="#linear-gradient"/><linearGradient id="linear-gradient-3" x1="4787.14" y1="1447.93" x2="4802.68" y2="1447.93" xlink:href="#linear-gradient"/><linearGradient id="linear-gradient-4" x1="4784.09" y1="1394.73" x2="4796.31" y2="1394.73" xlink:href="#linear-gradient"/><linearGradient id="linear-gradient-5" x1="4795.97" y1="1391.63" x2="4829.19" y2="1391.63" xlink:href="#linear-gradient"/><linearGradient id="linear-gradient-6" x1="914.24" y1="1023.16" x2="961.86" y2="1023.16" gradientUnits="userSpaceOnUse"><stop offset="0.35" stop-color="#f7aa46"/><stop offset="1" stop-color="#f46b45"/></linearGradient><linearGradient id="linear-gradient-7" x1="678.44" y1="1051.78" x2="934.33" y2="1051.78" xlink:href="#linear-gradient-6"/><linearGradient id="linear-gradient-8" x1="1105.96" y1="1059.82" x2="1234.9" y2="1059.82" gradientUnits="userSpaceOnUse"><stop offset="0" stop-color="#5aedc8"/><stop offset="0.31" stop-color="#63dbc8"/><stop offset="0.68" stop-color="#6bcec8"/><stop offset="1" stop-color="#6dc9c8"/></linearGradient><linearGradient id="linear-gradient-9" x1="1104.48" y1="983.55" x2="1239.33" y2="983.55" gradientUnits="userSpaceOnUse"><stop offset="0" stop-color="#bf6c82"/><stop offset="0.25" stop-color="#a36680"/><stop offset="0.52" stop-color="#8c617f"/><stop offset="0.77" stop-color="#7f5e7e"/><stop offset="1" stop-color="#7a5d7e"/></linearGradient><linearGradient id="linear-gradient-10" x1="-2840.48" y1="-1428.14" x2="-2705.74" y2="-1428.14" gradientTransform="matrix(0.63, -0.78, 0.78, 0.63, 3943.36, -377.92)" xlink:href="#linear-gradient-9"/><linearGradient id="linear-gradient-11" x1="-2078.64" y1="446.38" x2="-1924.37" y2="446.38" gradientTransform="translate(3182 778.5) rotate(9.08)" xlink:href="#linear-gradient-9"/><linearGradient id="linear-gradient-12" x1="20646.15" y1="1534.64" x2="20474.61" y2="1498.69" gradientTransform="translate(-20247.92 135.55) rotate(-2.95)" gradientUnits="userSpaceOnUse"><stop offset="0" stop-color="#6dc9c8"/><stop offset="0.32" stop-color="#6bcec8"/><stop offset="0.69" stop-color="#63dbc8"/><stop offset="1" stop-color="#5aedc8"/></linearGradient><linearGradient id="linear-gradient-13" x1="-14771.96" y1="771.9" x2="-14765.1" y2="2088.88" gradientTransform="matrix(-1, 0, 0, 1, -14373.73, 0)" gradientUnits="userSpaceOnUse"><stop offset="0.35" stop-color="#312b30"/><stop offset="1" stop-color="#191519"/></linearGradient><linearGradient id="linear-gradient-14" x1="-14655.01" y1="770.21" x2="-14648.15" y2="2087.19" xlink:href="#linear-gradient-13"/><linearGradient id="linear-gradient-15" x1="-14654.11" y1="770.2" x2="-14647.25" y2="2087.19" xlink:href="#linear-gradient-13"/><linearGradient id="linear-gradient-16" x1="-14656.35" y1="770.21" x2="-14649.49" y2="2087.2" xlink:href="#linear-gradient-13"/><linearGradient id="linear-gradient-17" x1="-14652.99" y1="770.2" x2="-14646.13" y2="2087.19" xlink:href="#linear-gradient-13"/><linearGradient id="linear-gradient-18" x1="-14654.56" y1="770.21" x2="-14647.7" y2="2087.19" xlink:href="#linear-gradient-13"/><linearGradient id="linear-gradient-19" x1="-14653.7" y1="770.2" x2="-14646.84" y2="2087.19" xlink:href="#linear-gradient-13"/><linearGradient id="linear-gradient-20" x1="19271.95" y1="774.24" x2="19443.59" y2="788.18" gradientTransform="translate(-19041.16)" xlink:href="#linear-gradient"/><linearGradient id="linear-gradient-21" x1="20395.49" y1="-4048.83" x2="20425.09" y2="-4049.99" gradientTransform="matrix(0, 0.9, -1, 0, -3792.54, -17468.22)" gradientUnits="userSpaceOnUse"><stop offset="0.2" stop-color="#312b30"/><stop offset="0.32" stop-color="#2a252a"/><stop offset="0.68" stop-color="#1d191d"/><stop offset="1" stop-color="#191519"/></linearGradient><linearGradient id="linear-gradient-22" x1="19227.09" y1="1064.81" x2="19235.36" y2="700.91" gradientTransform="translate(-19041.16)" xlink:href="#linear-gradient"/><linearGradient id="linear-gradient-23" x1="19191.87" y1="1060.28" x2="19221.47" y2="1059.12" gradientTransform="translate(-19041.16)" xlink:href="#linear-gradient-21"/><linearGradient id="linear-gradient-24" x1="19196.75" y1="685.02" x2="19266.2" y2="564.66" gradientTransform="translate(-19041.16)" xlink:href="#linear-gradient-12"/><linearGradient id="linear-gradient-25" x1="2400.21" y1="92.07" x2="2501.95" y2="92.07" gradientTransform="translate(2745.73 -99.42) rotate(162.21)" xlink:href="#linear-gradient-6"/><linearGradient id="linear-gradient-26" x1="2107.85" y1="186.96" x2="2445.45" y2="186.96" gradientTransform="translate(2746.29 -98.68) rotate(162.21)" xlink:href="#linear-gradient"/><linearGradient id="linear-gradient-27" x1="2132.29" y1="186.96" x2="2421.01" y2="186.96" gradientTransform="translate(2746.29 -98.68) rotate(162.21)" xlink:href="#linear-gradient-13"/><linearGradient id="linear-gradient-28" x1="2442.26" y1="48.77" x2="2631.33" y2="48.77" gradientTransform="translate(2745.73 -99.42) rotate(162.21)" xlink:href="#linear-gradient"/><linearGradient id="linear-gradient-29" x1="19336.88" y1="652.14" x2="19165.24" y2="549.15" gradientTransform="translate(-19041.16)" xlink:href="#linear-gradient-12"/></defs><g id="Layer_2" data-name="Layer 2"><g id="Layer_1-2" data-name="Layer 1"><path class="cls-1" d="M402.09,415.63S350,522.31,455,623c5.67-16.76,24.88-80.13-6-145.94A185,185,0,0,0,402.09,415.63Z"/><path class="cls-2" d="M455,624.3a1.27,1.27,0,0,1-1.26-1.1c-4.41-31.41-10.43-63-17.9-93.76a975.7,975.7,0,0,0-34.95-113.36,1.28,1.28,0,0,1,2.4-.9,975.79,975.79,0,0,1,35,113.66c7.48,30.88,13.52,62.51,17.94,94a1.28,1.28,0,0,1-1.09,1.45Z"/><path class="cls-1" d="M509.2,722.45s-42.67-110.1,73.4-174.11c0,0,44.38,105-54.62,179.23Z"/><path class="cls-2" d="M513.47,726.29a1.23,1.23,0,0,1-.84-.32,1.27,1.27,0,0,1-.13-1.8c22.6-25.95,68.41-174.7,68.87-176.2a1.28,1.28,0,0,1,2.45.75c-1.88,6.14-46.43,150.77-69.39,177.13A1.27,1.27,0,0,1,513.47,726.29Z"/><path class="cls-3" d="M471.3,1112.53c-12.76-4.1-32.57-8.44-72.2-17.12-16.92-3.71-30.94-6.58-40.45-8.48a123.48,123.48,0,0,1,15.7,16.16c16.39,20.27,21,39.2,24.75,49.5,16.46,45,74.12,81.49,119.57,89.24,12.36,2.1,23.15,2,38.94,9.2,21.31,9.77,35.25,25.4,43.76,37.26-.24-22-4.17-59.36-27.31-96.44C546.69,1148,503.94,1123,471.3,1112.53Z"/><path class="cls-2" d="M601.37,1289.57a1.3,1.3,0,0,1-1.19-.8,228,228,0,0,0-39.88-65.35c-21.28-24.28-41.41-36.27-81.52-60.15-6.91-4.11-14.74-8.78-23.16-13.85-31.42-19-63.4-39.05-95.05-59.77a1.28,1.28,0,1,1,1.4-2.14c31.63,20.7,63.58,40.79,95,59.72,8.41,5.07,16.24,9.73,23.14,13.84,40.34,24,60.59,36.08,82.13,60.66a230.38,230.38,0,0,1,40.34,66.08,1.29,1.29,0,0,1-.71,1.67A1.36,1.36,0,0,1,601.37,1289.57Z"/><path class="cls-3" d="M603.08,1103.37a125.15,125.15,0,0,0-10.81-51.77c-15.09-33.61-41.33-51-51.21-56.9-38.87-23-82.15-19.34-142.24-14.22-10.61.9-19.43,2-25.6,2.84,26.58,35.53,53.13,58.1,71.69,71.69,11.69,8.57,21.21,15.45,35.84,21.62,22.14,9.34,36.27,8.74,70,14.79C563.21,1093.66,581.28,1097.34,603.08,1103.37Z"/><path class="cls-2" d="M603.08,1104.65A1.31,1.31,0,0,1,602,1104c-38.51-70.7-99.33-83-148-85.82-39.2-2.27-81.08-33.51-81.49-33.83a1.28,1.28,0,1,1,1.54-2c.41.31,41.68,31.09,80.09,33.31,21.8,1.26,47.65,4.11,74.12,15.61,32.19,14,57.76,38.06,76,71.54a1.28,1.28,0,0,1-.51,1.74A1.31,1.31,0,0,1,603.08,1104.65Z"/><path class="cls-1" d="M627,958.85c2.51-7.43,19.68-55.61,71.12-76.81,44-18.15,83.93-4.44,97.5,1.14a133.21,133.21,0,0,1,48.15,34.14s-38.12,1.14-56.32,26.17-107.54,70-148.51,53.49S627,958.85,627,958.85Z"/><path class="cls-2" d="M638.36,982.33a1.28,1.28,0,0,1-.8-2.29c.62-.49,62.8-49.27,114.75-66.78,52.26-17.61,91.65,2.72,92,2.93a1.28,1.28,0,1,1-1.2,2.26c-.38-.2-38.85-20-90-2.76-51.53,17.36-113.36,65.87-114,66.36A1.27,1.27,0,0,1,638.36,982.33Z"/><path class="cls-3" d="M385.73,853a142.14,142.14,0,0,0,22.76-.57c26-2.78,38.4-11.54,56.33-15.93,0,0,24-5.9,56.33,2.27,63.58,16.09,89.11,108.64,90.46,113.8a81.41,81.41,0,0,0-14.79-12c-27.53-17.32-58.51-13.18-66.57-12.52C505.4,930.16,462.84,918.23,385.73,853Z"/><path class="cls-2" d="M611.61,953.88a1.3,1.3,0,0,1-1.1-.63c-51.23-86.7-129.95-85.31-163.56-84.73h-.31l-1.83,0c-31.64,0-59.39-14.24-59.67-14.39a1.28,1.28,0,0,1,1.18-2.27c.28.14,27.5,14.1,58.48,14.1l1.79,0h.32c16.76-.3,44.81-.79,75.66,9.77,37.53,12.86,67.86,38.49,90.15,76.21a1.28,1.28,0,0,1-.46,1.75A1.25,1.25,0,0,1,611.61,953.88Z"/><path class="cls-1" d="M615,859.85c-5.82-89,28.41-124.05,38.4-133.13,17.44-15.87,46-29.84,86.2-49.5,16.92-8.28,31.17-14.59,41-18.78a325.69,325.69,0,0,1-11.1,39.26c-8.26,23.48-23,65.41-59.74,103.27C676.69,835,639.57,851.64,615,859.85Z"/><path class="cls-2" d="M615,861.13a1.26,1.26,0,0,1-.47-.08,1.29,1.29,0,0,1-.73-1.66c.3-.75,29.86-75.18,92.52-131.07,62.13-55.41,73.1-70.48,73.2-70.62a1.28,1.28,0,0,1,2.09,1.48c-.42.59-11,15.27-73.59,71.05-62.2,55.48-91.54,129.35-91.83,130.09A1.27,1.27,0,0,1,615,861.13Z"/><path class="cls-1" d="M333,778.35c10.67-14.55,29.52-34.81,58.89-46.09,41.89-16.08,100-11.88,132.28,24.75a95.85,95.85,0,0,1,20.49,39.26A151.55,151.55,0,0,1,502,804c-26.24.88-46.53-5.43-58.89-9.38-36.35-11.64-42.13-24-66.57-25.61C358,767.75,342.64,773.59,333,778.35Z"/><path class="cls-2" d="M544.62,797.55a1.32,1.32,0,0,1-.76-.24A292.57,292.57,0,0,0,470.66,761c-38.12-12.34-92.81-19.17-136.87,18.34a1.28,1.28,0,1,1-1.66-1.94c19.87-16.93,43.48-26.5,70.17-28.47,21.3-1.57,44.58,1.68,69.21,9.66a295.23,295.23,0,0,1,73.86,36.67,1.28,1.28,0,0,1-.75,2.31Z"/><path class="cls-3" d="M577.13,854.38s-69.13-105,15.36-224C592.49,630.36,664.18,762.21,577.13,854.38Z"/><path class="cls-2" d="M577.13,855.66l-.22,0a1.27,1.27,0,0,1-1-1.48c5.86-34.17,10.16-69,12.78-103.57a1110.47,1110.47,0,0,0,2.56-120.19,1.28,1.28,0,0,1,2.56-.09,1115.83,1115.83,0,0,1-2.56,120.48c-2.63,34.63-6.94,69.55-12.82,103.8A1.28,1.28,0,0,1,577.13,855.66Z"/><path class="cls-3" d="M256.58,609.79s25.6,6.83,60.59-4.26,93.88-26.46,149.36,41.81a149.25,149.25,0,0,1-21.34,10.25c-37.62,14.49-71.25,9.72-84.49,7.68C305.1,656.7,268.81,622.43,256.58,609.79Z"/><path class="cls-2" d="M466.53,648.62a1.37,1.37,0,0,1-.49-.09c-.33-.14-33.53-13.56-72.91-13.56C355,635,284,628.43,255.9,610.88a1.28,1.28,0,1,1,1.36-2.17c27.62,17.26,98,23.7,135.87,23.7,39.9,0,73.55,13.61,73.88,13.75a1.28,1.28,0,0,1,.7,1.67A1.26,1.26,0,0,1,466.53,648.62Z"/><path class="cls-3" d="M217.46,487.59c16-3.25,57-9.33,103,9.58a177.68,177.68,0,0,1,70,52.18,263.15,263.15,0,0,1-173-61.76Z"/><path class="cls-2" d="M390.52,550.63a1.2,1.2,0,0,1-.77-.21c-53.9-36.12-171.37-61.33-172.55-61.58a1.28,1.28,0,1,1,.53-2.5c1.18.25,119.13,25.56,173.44,61.95a1.28,1.28,0,0,1-.65,2.34Z"/><path class="cls-3" d="M268.53,346.08s11.09,66.56,23,89.61,52.91,60.59,52.91,60.59a150.89,150.89,0,0,0-76-150.2Z"/><path class="cls-2" d="M345.34,494.15a1.29,1.29,0,0,1-1.18-.77c-11-25.33-23-50.57-35.8-75-12.71-24.26-26.47-48.35-40.92-71.61a1.28,1.28,0,1,1,2.17-1.35c14.49,23.31,28.28,47.46,41,71.77,12.83,24.51,24.9,49.81,35.88,75.19a1.28,1.28,0,0,1-.67,1.68A1.1,1.1,0,0,1,345.34,494.15Z"/><path class="cls-3" d="M223.29,358s49.5,107.54,121.19,138.26Z"/><path class="cls-3" d="M628.76,649.13s-20.48-121.61,64-158.73,98.56-42.25,98.56-42.25-26.88,46.09-48.64,111.37S640.28,647.85,628.76,649.13Z"/><path class="cls-2" d="M628.76,650.41a1.31,1.31,0,0,1-.63-.16,1.29,1.29,0,0,1-.49-1.75A779.14,779.14,0,0,1,790.49,447.19a1.28,1.28,0,0,1,1.69,1.92A777,777,0,0,0,629.87,649.76,1.25,1.25,0,0,1,628.76,650.41Z"/><path class="cls-3" d="M418.82,448.15S589.08,421.27,607,601.77a215.5,215.5,0,0,1-58.89-15.36C465.1,551.46,429.26,473.6,418.82,448.15Z"/><path class="cls-2" d="M607,603.05a1.29,1.29,0,0,1-1.11-.64,342.11,342.11,0,0,0-187.48-153,1.28,1.28,0,0,1,.82-2.43A344.6,344.6,0,0,1,608.1,601.13a1.28,1.28,0,0,1-.46,1.75A1.33,1.33,0,0,1,607,603.05Z"/><path class="cls-3" d="M605.72,445.59s-20.48-149.77,145.93-151a884.84,884.84,0,0,1-35.84,92.17C694.05,434.07,610.84,445.59,605.72,445.59Z"/><path class="cls-2" d="M605.72,446.87a1.41,1.41,0,0,1-.49-.09,1.28,1.28,0,0,1-.7-1.67c22.91-56,145.11-150.63,146.34-151.58a1.28,1.28,0,1,1,1.56,2c-1.22.95-122.88,95.17-145.53,150.53A1.28,1.28,0,0,1,605.72,446.87Z"/><path class="cls-3" d="M411.14,290.7S578.83,280.46,601.88,461c-9.71-7.46-24.61-18.48-43.53-30.72-49.72-32.17-70.56-36.1-94.73-56.32C446.45,359.53,425.2,334.94,411.14,290.7Z"/><path class="cls-2" d="M601.88,462.24a1.28,1.28,0,0,1-1.17-.76c-23-50.65-73.46-94.05-111.72-121.55a621.84,621.84,0,0,0-78.41-48.08,1.28,1.28,0,1,1,1.12-2.3,623.29,623.29,0,0,1,78.75,48.27C529,365.51,579.78,409.25,603,460.43a1.28,1.28,0,0,1-.63,1.69A1.31,1.31,0,0,1,601.88,462.24Z"/><path class="cls-3" d="M610.84,302.22c-7-27-4.43-46.65-1.28-58.88,5.81-22.62,17-33.77,62.65-97,7.32-10.15,13.2-18.41,16.71-23.37,3.46,12.73,13,54.25-6.47,101C661.76,273.71,622.06,296.32,610.84,302.22Z"/><path class="cls-2" d="M610.84,303.5a1.32,1.32,0,0,1-.34,0,1.3,1.3,0,0,1-.9-1.58c.11-.37,10.61-38,44.48-88,33.49-49.39,33.57-90.5,33.56-90.91a1.3,1.3,0,0,1,1.27-1.29A1.25,1.25,0,0,1,690.2,123c0,.42,0,42.27-34,92.37-33.61,49.57-44,86.83-44.13,87.2A1.27,1.27,0,0,1,610.84,303.5Z"/><path class="cls-3" d="M448.89,177.09s52.91-7.68,97.29,49.5,52.92,95.59,52.92,95.59a226.52,226.52,0,0,0-51.21-37.55c-14.59-7.8-24.67-11.09-30.72-13.66C496.45,262.17,470.37,239.45,448.89,177.09Z"/><path class="cls-2" d="M599.1,323.46a1.28,1.28,0,0,1-1.12-.66c-45.39-81.53-148.71-144-149.75-144.61a1.28,1.28,0,1,1,1.32-2.2,552.79,552.79,0,0,1,58,41.61c29.09,23.72,68.79,61,92.69,104a1.27,1.27,0,0,1-1.11,1.9Z"/><path class="cls-3" d="M533.1,70.41s60.59,17.07,68.27,141.67A151.11,151.11,0,0,1,551,158.32C530.11,120.43,531.74,84.31,533.1,70.41Z"/><path class="cls-2" d="M601.37,213.36a1.29,1.29,0,0,1-1.07-.57A583.26,583.26,0,0,1,561,143.51,582.48,582.48,0,0,1,531.88,70.8a1.28,1.28,0,1,1,2.43-.78,581.57,581.57,0,0,0,29,72.38,580.4,580.4,0,0,0,39.17,69,1.27,1.27,0,0,1-.36,1.77A1.31,1.31,0,0,1,601.37,213.36Z"/><path class="cls-1" d="M782.45,1000.65S839.27,921.17,923.1,950s96.86,29.5,96.86,29.5S917.81,1087.27,782.45,1000.65Z"/><path class="cls-3" d="M831,733.62a179.89,179.89,0,0,1,30.08,66.73c18.67,85.68-34.68,155.51-44.16,167.53A212.59,212.59,0,0,1,788.77,877C783.5,803.48,819.19,749.92,831,733.62Z"/><path class="cls-2" d="M782.14,1001.89a1.28,1.28,0,0,1-.19-2.42c.66-.28,65.83-27.37,108.89-15.26.69.19,1.4.37,2.11.55,43,10.76,125.91-6.29,126.75-6.47a1.28,1.28,0,1,1,.52,2.51c-.85.17-84.3,17.34-127.92,6.44-.73-.18-1.44-.37-2.15-.57-42.23-11.81-106.56,14.88-107.2,15.16A1.33,1.33,0,0,1,782.14,1001.89Z"/><path class="cls-2" d="M816.94,969.16a1.24,1.24,0,0,1-.56-.13,1.27,1.27,0,0,1-.59-1.71c22.63-46.53,14-231.77,14-233.64a1.28,1.28,0,0,1,2.56-.12c.36,7.64,8.71,187.76-14.21,234.88A1.27,1.27,0,0,1,816.94,969.16Z"/><path class="cls-3" d="M910,858.22s17.92-37.13,10.24-75.53S933,673.88,997,630.36c0,0-15.37,47.36-14.09,85.76S975.24,812.13,910,858.22Z"/><path class="cls-3" d="M880.51,894.06s87-55,117.78-60.16,125.45-9,125.45-9c-14.59,20.66-40.78,50.12-81.93,66.57-41.88,16.74-82,13.12-113.93,10.24A340.29,340.29,0,0,1,880.51,894.06Z"/><path class="cls-3" d="M1009,783.54s19.21-70.4,99.85-90.88C1108.8,692.66,1076.8,761.78,1009,783.54Z"/><path class="cls-2" d="M910,859.5a1.27,1.27,0,0,1-.9-.37,1.29,1.29,0,0,1,0-1.81c37-38,38.51-72.45,40-105.81.41-9.17.8-17.83,1.89-26.58C956,684.1,995.58,630.14,996,629.6a1.28,1.28,0,1,1,2.06,1.52c-.4.53-39.55,54-44.57,94.12-1.08,8.66-1.47,17.26-1.87,26.38-1.52,33.84-3.08,68.83-40.72,107.49A1.3,1.3,0,0,1,910,859.5Z"/><path class="cls-2" d="M880.51,895.34a1.28,1.28,0,0,1-.16-2.55c1.85-.24,185.93-24.79,242.6-68.87a1.29,1.29,0,0,1,1.8.23,1.27,1.27,0,0,1-.23,1.79c-24,18.7-72.4,36.07-143.72,51.61-53,11.56-99.65,17.72-100.12,17.78Z"/><path class="cls-3" d="M609.36,948.5c-8-19.93-16.44-40.2-25-60.23-25.85-60.52-56.91-127.9-75.54-163.86-38.07-73.5-94.7-150.61-168.31-229.19l4.54-5.69C419.2,568.68,478,646.29,516.4,720.49c18.72,36.12,49.89,103.74,75.81,164.43,8.58,20.08,17,40.4,25.07,60.39Z"/><path class="cls-3" d="M616.73,1401l-17.06-.15c.85-101,1.43-203.46,1.7-304.63.89-330.06-1.38-664.78-6.75-994.86l17.07-.28c5.37,330.19,7.64,665,6.75,995.18C618.17,1197.49,617.59,1300,616.73,1401Z"/><path class="cls-3" d="M613.7,1254.4l-7.58-3.92C673.6,1119.93,760,1002.41,863,901.19a1359.32,1359.32,0,0,1,153-129.56l5,6.9a1350.05,1350.05,0,0,0-152,128.75C766.64,1007.86,680.76,1124.65,613.7,1254.4Z"/><path class="cls-2" d="M1009,784.82a1.28,1.28,0,0,1-.86-2.22l99.85-90.89a1.28,1.28,0,1,1,1.72,1.89l-99.84,90.89A1.31,1.31,0,0,1,1009,784.82Z"/><path class="cls-3" d="M741.34,1039.08a378.18,378.18,0,0,1-30.73-105.83,373.15,373.15,0,0,1-3.41-50.35c11.19,2.47,34.91,9.56,50.35,30.72C781.1,945.89,776.11,998.16,741.34,1039.08Z"/><path class="cls-2" d="M741.34,1040.36a1.15,1.15,0,0,1-.31,0,1.29,1.29,0,0,1-.94-1.55,178.85,178.85,0,0,0-8.32-112.39c-11.19-26.83-25.37-42.46-25.51-42.62a1.28,1.28,0,1,1,1.88-1.73c.15.16,14.58,16.06,26,43.26a181.41,181.41,0,0,1,8.49,114.09A1.27,1.27,0,0,1,741.34,1040.36Z"/><circle class="cls-4" cx="634.94" cy="991.29" r="15.36" transform="translate(-514.98 739.31) rotate(-45)"/><circle class="cls-4" cx="615.6" cy="1008.36" r="15.36" transform="translate(-339.02 312.33) rotate(-22.5)"/><circle class="cls-4" cx="611.04" cy="982.18" r="15.36" transform="translate(-485.25 1351.22) rotate(-76.72)"/><circle class="cls-5" cx="640.06" cy="1020.3" r="15.36"/><circle class="cls-5" cx="660.55" cy="1001.53" r="15.36" transform="translate(-465.95 1414.3) rotate(-76.72)"/><circle class="cls-5" cx="659.98" cy="972.51" r="15.36"/><circle class="cls-5" cx="632.1" cy="963.41" r="15.36"/><circle class="cls-5" cx="605.36" cy="969.67" r="15.36" transform="translate(-508.35 712.06) rotate(-45)"/><circle class="cls-5" cx="589.99" cy="997.54" r="15.36" transform="translate(-336.83 301.71) rotate(-22.5)"/><circle class="cls-4" cx="580.32" cy="1023.72" r="15.36" transform="translate(-553.91 710.19) rotate(-45)"/><circle class="cls-5" cx="600.23" cy="1032.82" r="15.36"/><circle class="cls-5" cx="624.7" cy="1037.37" r="15.36" transform="matrix(0.16, -0.99, 0.99, 0.16, -499.34, 1487.84)"/><circle class="cls-4" cx="520.58" cy="748.05" r="15.36" transform="translate(-301.2 1142.08) rotate(-80.78)"/><circle class="cls-4" cx="540.49" cy="700.26" r="15.36" transform="translate(-237.3 1121.6) rotate(-80.78)"/><circle class="cls-4" cx="491.56" cy="709.93" r="15.36" transform="translate(-358.02 555.52) rotate(-45)"/><circle class="cls-4" cx="470.51" cy="725.29" r="15.36"/><circle class="cls-4" cx="480.75" cy="760.57" r="15.36"/><circle class="cls-5" cx="541.06" cy="729.28" r="15.36" transform="translate(-293.02 1088.31) rotate(-76.72)"/><circle class="cls-5" cx="515.46" cy="719.03" r="15.36" transform="translate(-357.46 575.08) rotate(-45)"/><circle class="cls-5" cx="512.61" cy="691.16" r="15.36" transform="translate(-338.58 564.91) rotate(-45)"/><circle class="cls-5" cx="485.87" cy="697.41" r="15.36" transform="translate(-259.7 289.28) rotate(-26.44)"/><circle class="cls-5" cx="496.11" cy="736.1" r="15.36"/><circle class="cls-5" cx="460.84" cy="751.47" r="15.36" transform="translate(-414.51 647.37) rotate(-51.7)"/><circle class="cls-5" cx="505.22" cy="765.12" r="15.36" transform="translate(-355.51 1081.03) rotate(-76.72)"/><path class="cls-4" d="M584.07,668.39a15.36,15.36,0,1,1,14-16.64A15.38,15.38,0,0,1,584.07,668.39Z"/><circle class="cls-5" cx="601.07" cy="666.91" r="15.36" transform="translate(-296.19 698.19) rotate(-49.97)"/><circle class="cls-5" cx="621.55" cy="685.69" r="15.36" transform="translate(-163.67 195.87) rotate(-15.85)"/><circle class="cls-4" cx="629.54" cy="659.29" r="15.36" transform="translate(-280.46 605.57) rotate(-42.94)"/><circle class="cls-5" cx="650.41" cy="682.61" r="15.36" transform="translate(-137.19 164.27) rotate(-13.03)"/><circle class="cls-5" cx="657.06" cy="654.04" r="15.36" transform="translate(-266.36 736.47) rotate(-49.97)"/><circle class="cls-4" cx="648.51" cy="627.94" r="15.36" transform="translate(-107.57 134.77) rotate(-10.96)"/><circle class="cls-5" cx="610.86" cy="641.5" r="15.36" transform="translate(-110.84 127.86) rotate(-10.96)"/><circle class="cls-5" cx="636.54" cy="634.7" r="15.36" transform="matrix(0.83, -0.56, 0.56, 0.83, -245.92, 463.55)"/><circle class="cls-4" cx="619.41" cy="615.06" r="15.36" transform="translate(-135.29 176.44) rotate(-14.63)"/><circle class="cls-5" cx="592.5" cy="607.69" r="15.36" transform="translate(-134.31 169.4) rotate(-14.63)"/><circle class="cls-5" cx="585.15" cy="628.31" r="15.36" transform="translate(-88.96 96.57) rotate(-8.77)"/><path class="cls-4" d="M587.63,454.7a15.36,15.36,0,1,1-7.49-20.39A15.37,15.37,0,0,1,587.63,454.7Z"/><circle class="cls-4" cx="593.55" cy="417.81" r="15.36" transform="translate(69.9 920.46) rotate(-78.97)"/><path class="cls-5" d="M624.67,445.39a15.36,15.36,0,1,1-7.48-20.4A15.36,15.36,0,0,1,624.67,445.39Z"/><path class="cls-4" d="M651.15,437a15.36,15.36,0,1,1-7.49-20.39A15.37,15.37,0,0,1,651.15,437Z"/><path class="cls-5" d="M635.06,418.61a15.36,15.36,0,1,1-7.48-20.4A15.35,15.35,0,0,1,635.06,418.61Z"/><circle class="cls-5" cx="648.88" cy="403.93" r="15.36" transform="translate(237.27 1047.97) rotate(-89.32)"/><path class="cls-5" d="M641.35,390.41a15.36,15.36,0,1,1-7.48-20.4A15.35,15.35,0,0,1,641.35,390.41Z"/><path class="cls-4" d="M614.45,384.85A15.36,15.36,0,1,1,607,364.46,15.36,15.36,0,0,1,614.45,384.85Z"/><circle class="cls-5" cx="600.42" cy="392.14" r="15.36" transform="translate(-115.22 438.47) rotate(-36.85)"/><path class="cls-5" d="M588.8,403.69a15.36,15.36,0,1,1-7.49-20.39A15.37,15.37,0,0,1,588.8,403.69Z"/><circle class="cls-5" cx="555.08" cy="416.92" r="15.36" transform="translate(-138.75 439.99) rotate(-38.81)"/><path class="cls-5" d="M583.27,440a15.36,15.36,0,1,1-7.48-20.4A15.36,15.36,0,0,1,583.27,440Z"/><path class="cls-5" d="M603.56,454.42a15.36,15.36,0,1,1-7.49-20.4A15.36,15.36,0,0,1,603.56,454.42Z"/><circle class="cls-4" cx="857.41" cy="913.34" r="15.36" transform="translate(-394.7 873.79) rotate(-45)"/><circle class="cls-4" cx="806.2" cy="966.25" r="15.36" transform="translate(-319.43 1528.89) rotate(-76.72)"/><circle class="cls-4" cx="831.8" cy="946.34" r="15.36" transform="translate(-425.53 865.35) rotate(-45)"/><circle class="cls-5" cx="823.27" cy="975.92" r="15.36"/><circle class="cls-5" cx="847.17" cy="963.41" r="15.36"/><circle class="cls-5" cx="859.68" cy="938.94" r="15.36"/><circle class="cls-5" cx="835.22" cy="919.6" r="15.36" transform="translate(-206.29 1596.73) rotate(-80.78)"/><circle class="cls-5" cx="811.32" cy="940.65" r="15.36" transform="translate(-298.21 382.08) rotate(-22.5)"/><circle class="cls-4" cx="338.51" cy="536.68" r="15.36"/><circle class="cls-4" cx="364.11" cy="516.77" r="15.36"/><circle class="cls-4" cx="389.72" cy="483.77" r="15.36"/><circle class="cls-5" cx="355.58" cy="546.35" r="15.36"/><circle class="cls-5" cx="379.47" cy="533.84" r="15.36" transform="translate(-174.06 183.72) rotate(-22.28)"/><circle class="cls-5" cx="391.99" cy="509.37" r="15.36"/><circle class="cls-5" cx="367.53" cy="490.02" r="15.36" transform="translate(-244.61 467.87) rotate(-51.06)"/><circle class="cls-5" cx="343.63" cy="511.08" r="15.36"/><path class="cls-3" d="M636.36,1208.06c-3.63-14.41-9.75-48.09,7.69-79.37,20.56-36.9,62.44-49.9,77.66-54.62,16.2-5,24.41-4.52,60.59-14.51,15.62-4.31,28.31-8.33,36.7-11.09-4.63,11.26-11.47,27.24-20.48,46.08-24.47,51.2-36.7,76.8-55.31,92.18C733.7,1194.6,701.66,1217.79,636.36,1208.06Z"/><path class="cls-2" d="M636.52,1209.34a1.48,1.48,0,0,1-1.07-.45,1.36,1.36,0,0,1,.11-2L817.5,1047.84a1.48,1.48,0,0,1,2,.09,1.35,1.35,0,0,1-.1,2L637.48,1209A1.44,1.44,0,0,1,636.52,1209.34Z"/><path class="cls-3" d="M603.08,1.28a142.77,142.77,0,0,0-19.63,50.35c-9.64,53.44,15.15,96,23,108.39A175.07,175.07,0,0,0,603.08,1.28Z"/><path class="cls-2" d="M606.49,161.3a1.28,1.28,0,0,1-1.27-1.14c-3-28-4.68-56.47-5.13-84.61-.39-24.68.18-49.7,1.71-74.35a1.28,1.28,0,0,1,2.56.16c-1.53,24.58-2.1,49.53-1.71,74.15.45,28.07,2.17,56.46,5.12,84.38a1.29,1.29,0,0,1-1.14,1.41Z"/><path class="cls-5" d="M840.5,1231c5.73-6.19,21.36-24.73,21.91-50.66a58.72,58.72,0,0,0-5-26.67c-2-4.26-7.51-16.42-20.07-23.43-17.12-9.54-39.3-5.09-53.93,5.93-19.58,14.77-21.19,38-21.38,41.62-26.22-13.21-54.42-3.12-62.71,15.31-5.56,12.35-2.08,28.23,7.51,40.83-29.8,12.07-42.67,44.82-32,69,8.26,18.81,30,30.88,53.56,28.67,2.55,5.13,9.91,18.14,24.22,22.84,18.68,6.14,36.36-6.08,45.23-12.2C841.71,1311.9,840.81,1242.55,840.5,1231Z"/><path class="cls-6" d="M847.33,1349.5a324.38,324.38,0,0,1,34.89,5.81c29,6.5,33.81,11.83,36,15.12,4.86,7.14,5.73,16.76,3.49,24.42-2.58,8.86-10.59,19.9-45.36,31.4-21,7-54.52,15-99.24,13.18q1.56-11.23,3.1-22.48c-10.13,1.73-22.42,3.73-36.43,5.82-27.13,4-33.67,4.38-41.1.77-9.16-4.46-19.26-14.63-19.38-27.14-.11-11.89,8.55-20.24,10.08-21.7a36,36,0,0,1,14.92-8.34c14.14-4.42,32.11-10.65,54.66-18.61q2.82-12.11,5.63-24.23l74,2.72Z"/><path class="cls-7" d="M769.61,1421.91c-8.05-3.39-27.5-10.48-43.33-4.44-3.52,1.34-10.95,4.17-11.83,9.64-.51,3.12,1.35,5.81,2.08,6.89,6.66,9.91,25,8.78,34.75,8.18a92.23,92.23,0,0,0,15-2.16c.67-.16,5-1.26,6.88-5.23S773.76,1425.31,769.61,1421.91Z"/><path class="cls-8" d="M794.41,1414.62l-21.51,4.07c-17.58-5.1-32.76-3.9-37.3,3.29-2.61,4.13-3.06,12.36-2.21,13.66a3.51,3.51,0,0,0,.91,1,4.3,4.3,0,0,0,1.83.67c1.34.15,14,.33,31.33.41l25.56-1.76Q793.71,1425.27,794.41,1414.62Z"/><path class="cls-7" d="M797.77,1395.52c8.29-2.74,28.23-8.28,43.54-1,3.4,1.62,10.59,5,11,10.55.25,3.15-1.81,5.68-2.62,6.7-7.42,9.36-25.66,6.78-35.29,5.42a92.78,92.78,0,0,1-14.77-3.33c-.66-.22-4.85-1.65-6.44-5.76S793.36,1398.59,797.77,1395.52Z"/><path class="cls-8" d="M773.71,1391l22.63,4.53s31.83-3,35.33,2.76c2.67,4.44,3.31,11,1.12,13.79a3.55,3.55,0,0,1-2.85,1.4c-4.5,0-16-.68-31.27-2l-25.35-3.76Z"/><path class="cls-9" d="M702.73,1423.54c-8.78-4.27-18.76-14.07-19.38-27.14,0-.89-.47-14.14,9.3-22.48,6.13-5.23,13.47-6.14,19.19-6.4,39.07-1.73,80.6,23.74,80.83,23.84h0L788,1418.11c-18.76,1.4-33.89,3.24-44.19,4.66C720.12,1426,712.52,1428.3,702.73,1423.54Z"/><path class="cls-9" d="M918.27,1370.43c7.66,8.18,3.94,22.69,3.49,24.42-1.19,4.64-5.93,18.57-35.47,32-39.36,17.87-81.85,16.25-109.13,12.59q-1-11-1.93-21.9a379,379,0,0,1,44.29-25.14C846.11,1379.57,901.74,1352.76,918.27,1370.43Z"/><path class="cls-8" d="M719.39,1116a9.38,9.38,0,0,1-.14-4.14c.52-3.13,2.29-11.82,5-23.44a2.16,2.16,0,0,1,4,.47q-.8,4.88-1.61,9.76,1.24-5.16,2.5-10.33a2.37,2.37,0,0,1,2.8-2,2.33,2.33,0,0,1,1.62,2.37q-.79,5.33-1.6,10.66,1.56-5.35,3.11-10.7a2.19,2.19,0,1,1,4.17,1.3q-1.05,5.5-2.09,11,1.93-5.28,3.86-10.57a2.12,2.12,0,0,1,4,1.43q-2.66,9.75-5.3,19.51l-6.66,11c-.47,2.23-.93,4.47-1.4,6.7l-11.81-4.26c.57-1.84,1.11-3.58,1.6-5.13A9.11,9.11,0,0,1,719.39,1116Z"/><path class="cls-8" d="M883.05,1105.4l-5-18.12a2.12,2.12,0,0,1,4-1.46q2,5.28,3.91,10.56-1.08-5.51-2.15-11A2.19,2.19,0,1,1,888,1084l3.15,10.69q-.83-5.32-1.64-10.66a2.33,2.33,0,0,1,1.61-2.37,2.38,2.38,0,0,1,2.81,2q1.27,5.16,2.54,10.31l-1.65-9.75a2.15,2.15,0,0,1,4-.48c2.73,11.61,4.54,20.29,5.07,23.41a9.34,9.34,0,0,1-.13,4.14,9,9,0,0,1-2,3.63c.5,1.56,1,3.29,1.62,5.12l-11.79,4.32c-.47-2.23-.95-4.47-1.43-6.7l-6.7-11.47Z"/><path class="cls-10" d="M835.63,1240.21a13.91,13.91,0,0,1-2.64-9.32c-7.12,1-9.16,0-9.7-1.06-3.06-6.36,40.15-22.81,58-58.86,9.1-18.32,9.31-37,7.94-50.29l14.88-4.15c6.45,11.11,15.61,31.09,13.87,55.79-2.95,41.69-35.72,79.29-83,96Q835.3,1254.26,835.63,1240.21Z"/><path class="cls-11" d="M719.15,1121.21l14.35,5.24a136.38,136.38,0,0,0,16.34,56.09c7.18,13,15.1,25.19,28.21,30.52a65.33,65.33,0,0,0,19.21,4.19l2.78,0a136.4,136.4,0,0,1,33.33,5.19c2.89,9.9,5.68,17.69,7.64,22.87,4.3,11.33,6.92,16.14,5.58,22.7-1.21,6-5,10.18-7.79,12.64a106,106,0,0,0,6.33,51.37,142.63,142.63,0,0,1-79-5.12A94.53,94.53,0,0,0,772,1309.4a101.58,101.58,0,0,0,1.91-30.71,106.32,106.32,0,0,0-4-21.16c-5.36-2.12-42.86-17.69-57-59.74C699.9,1159.19,716.22,1126.8,719.15,1121.21Z"/><path class="cls-8" d="M831.39,1208.52l-3,14.34a4.23,4.23,0,0,1-.15,2.81c-1.46,3.1-7.46,2.92-9.7,2.86-9.13-.27-16.41-6.55-20-10.24a50,50,0,0,0,7.82-13.2,50.6,50.6,0,0,0,3.6-18.56l14.75-6.06Q828,1194.49,831.39,1208.52Z"/><path class="cls-12" d="M831.39,1208.52l-1-4L813,1193h0c-.73,1-1.45,2-2.17,3a14.27,14.27,0,0,0-1.26,3.19,22,22,0,0,0,4.53,9.83c5.3,6.48,12.79,7.77,15.53,8.06Z"/><path class="cls-8" d="M840.61,1156.94c5.8,5,4.63,46,2.28,51.29s-12.55,3.45-19,2.67-13.91-6.56-15.4-8.86.15-9.84.15-9.84-5.72,2.56-6-2.74,3.6-13.2,5.45-10.15l1.85,3.06S834.25,1151.41,840.61,1156.94Z"/><path class="cls-13" d="M817.2,1227.76l7.73.62a131.51,131.51,0,0,1,3.05,21.56c.51,8.63,0,15.14-.9,27.37-1.23,16.11-2,17.18-2.42,25.72a149.63,149.63,0,0,0,1.93,31c-1.51.18-3.07.34-4.68.47s-3.24.24-4.93.32c-.65-10.73-.72-20.25-.46-28.55.19-6.28.65-11.26,1.49-21.22,1.77-21.23,2.57-23.49,2.5-31.24A114.21,114.21,0,0,0,817.2,1227.76Z"/><path class="cls-14" d="M829.16,1220.87l-5.6,7.26,5,8.4q3.78-7.11,7.55-14.22Z"/><path class="cls-15" d="M823.92,1228q-2.49,4.17-5,8.33l-27.63-20.06,10.38-3.53Z"/><path class="cls-9" d="M832.62,1198.53l11.68.68c-.15,1.89-.33,3.58-.53,5a6.77,6.77,0,0,1-11.17-5.53A.77.77,0,0,1,832.62,1198.53Z"/><path class="cls-16" d="M938.05,999.35a23.81,23.81,0,1,0,23.81,23.81A23.81,23.81,0,0,0,938.05,999.35Zm0,38a14.22,14.22,0,1,1,14.22-14.21A14.21,14.21,0,0,1,938.05,1037.37Z"/><path class="cls-9" d="M811,951.76l-1.16-.73a33.42,33.42,0,0,1-3.23-2.18,40.21,40.21,0,0,1-9.85-10.26,27.39,27.39,0,0,1-4-9.26,21.09,21.09,0,0,1-.57-5.8,23.75,23.75,0,0,1,.1-2.62c.21-1.07.42-2.16.63-3.25a35,35,0,0,1,5.27-11.14c2.35-3.24,4.9-6.19,7.36-9,5.06-5.48,9.58-10.75,11.47-16.34a22.07,22.07,0,0,0,1-4.23l.11-.53,0-.13c0,.26,0,0,0,0l0-.32.08-1.25c.05-.81,0-1.33,0-2a32,32,0,0,0-1.58-8,56.6,56.6,0,0,0-5.85-11.76c-1.76-2.77-2.86-4.35-2.86-4.35a43.68,43.68,0,0,1,4.24,3.13,40.33,40.33,0,0,1,9.3,10.75,29.34,29.34,0,0,1,3.61,9.36c.14.92.32,2,.39,2.86l.1,1.25,0,.31a1.34,1.34,0,0,1,0,.32v.18l0,.73a23.91,23.91,0,0,1-.79,5.95,32.89,32.89,0,0,1-5.08,11.12,102.41,102.41,0,0,1-7.33,9.16c-5.12,5.48-9.76,10.79-11.69,16.17l-.61,1.84c-.15.74-.24,1.68-.39,2.49a13.89,13.89,0,0,0-.2,4.1,28.29,28.29,0,0,0,1.86,7.87,56.58,56.58,0,0,0,6.46,11.42C809.76,950.24,811,951.76,811,951.76Z"/><path class="cls-9" d="M829.58,907.47s-.1.83-.3,2.17l-.87,5.31c-.3,2-.65,4.45-1,7-.15,1.27-.3,2.58-.46,3.92s-.24,2.44-.31,3.81c-.41,5.22-.38,10.55-.46,14.89,0,2.15,0,4,0,5.4s-.09,2.2-.09,2.2a20.33,20.33,0,0,1-5-6.19,30.21,30.21,0,0,1-3.65-17,34.78,34.78,0,0,1,.74-4.86c.17-.7.37-1.39.58-2.07a18,18,0,0,1,.79-2.27,26.69,26.69,0,0,1,4.1-7.07A19.81,19.81,0,0,1,829.58,907.47Z"/><path class="cls-17" d="M678.46,972.75c0,.5,0,1,0,1.52,0,86.45,57.28,156.54,127.94,156.54s128-70.09,128-156.54c0-.51,0-1,0-1.52Z"/><path class="cls-8" d="M743.21,1105.05a2.63,2.63,0,0,1,2.41-1.32,2.18,2.18,0,0,1,1.58.88c.61.94.11,2.25-.24,3.1a80,80,0,0,1-3.56,7.94c-2,3.69-2.66,4.73-3.33,5.32a3.48,3.48,0,0,1-.46.34,9,9,0,0,1-6.63,1l6.66-11Z"/><path class="cls-8" d="M875.84,1100.08a2.16,2.16,0,0,1,1.57-.88,2.6,2.6,0,0,1,2.42,1.31l3.6,6.25c-.13-.45-.25-.9-.38-1.36l.38.83,6.7,11.47a9,9,0,0,1-6.63-1,4.1,4.1,0,0,1-.47-.34c-.67-.58-1.3-1.62-3.35-5.3a80.38,80.38,0,0,1-3.59-7.93C875.74,1102.33,875.23,1101,875.84,1100.08Z"/><path class="cls-18" d="M995.38,871.4l-19.11-11a2.36,2.36,0,0,0-2.68,3.89l10.33,7.19-11.33-5.41A2.44,2.44,0,1,0,970,870.2l10.68,6.41-11.07-4.76a2.61,2.61,0,0,0-3,1.08,2.66,2.66,0,0,0,1.38,3.6l10.46,5.64-10.1-4.52a2.41,2.41,0,0,0-1.64,4.17c11.81,6.21,20.69,10.6,23.93,12a10.45,10.45,0,0,0,4.51,1,9.88,9.88,0,0,0,4.48-1.11l5.09,3.2,8-11.55-6.85-3.43Z"/><path class="cls-19" d="M1140.93,861.57c-5.85-7.39-21.66-29.42-20-58.37a65.55,65.55,0,0,1,7.93-29.29c2.55-4.58,9.8-17.65,24.41-24.37,19.91-9.16,44.26-2.27,59.6,11.29,20.55,18.17,20.32,44.22,20.22,48.25,30.38-12.45,60.94,1.25,68.58,22.51,5.12,14.25-.13,31.65-11.92,44.86,32.17,16,43.68,53.67,29.73,79.73-10.84,20.25-36.14,31.82-62.2,27.32-3.28,5.49-12.62,19.35-29,23.36-21.35,5.22-40-9.94-49.35-17.54C1132.56,951.65,1139.59,874.43,1140.93,861.57Z"/><path class="cls-20" d="M1183.42,1201q16.56-103.12,33.13-206.26l-85.93-9c.47,51.68-6.14,90.09-12.88,116.86a223.62,223.62,0,0,0-6.16,37.7c-1.15,15-2,27.42,2.48,42.35,1.65,4.4,4.24,10.85,8,18.38,7.36,15,19.51,35,58.3,74.56,15.75,16.07,15.52,14.6,35,34,20,20,35.63,37,45.67,48.14l15-16.56Z"/><path class="cls-18" d="M1208.62,1003.57l-18.51-14.87h0a113.6,113.6,0,0,0-32.91-13.13,1045.46,1045.46,0,0,0-5,107.15c.34,57.31,5.34,93.87,15.49,202.09,4,42.8,7,77.53,8.86,99.26l22.09,2q15.35-140.37,30.7-280.73C1227.28,1032.48,1217.08,1010.49,1208.62,1003.57Z"/><path class="cls-21" d="M1263.94,1381.26c9.76-8.49,11.51-41.64,11.51-41.64s12.1,3.9,13.53,10.16-23.35,57.54-31.61,57.46c-3.67,0-3.84-10.19-2.9-21.46C1256.82,1385.75,1260,1384.72,1263.94,1381.26Z"/><path class="cls-21" d="M1157.41,1397.22c12.1,4.55,42.1-9.66,42.1-9.66s2.32,12.5-2.5,16.73-61.73,6.8-65.58-.5c-1.72-3.25,7.14-8.23,17.51-12.76C1150.07,1393.08,1152.47,1395.36,1157.41,1397.22Z"/><path class="cls-22" d="M1125.75,963a106.52,106.52,0,0,0,77.93-1.85,282.89,282.89,0,0,1,22.89,197.4l-119.63-1.23A646.24,646.24,0,0,1,1125.75,963Z"/><path class="cls-20" d="M1253,1347.67l6.61,8.19q-.4,5.6-1.17,11.62c-.87,6.85-2,13.26-3.3,19.19,2.34,0,5.49-1.07,9.46-4.54,15.55-13.61,11.73-39.91,11.4-41.67-2.19-1.81-4.45-3.8-6.74-6-3.09-2.93-5.84-5.82-8.29-8.59Q1257,1336.78,1253,1347.67Z"/><path class="cls-18" d="M1177.69,1381.32q-5.12,2.29-10.78,4.49c-6.44,2.49-12.62,4.53-18.45,6.22,1.14,2,3.55,4.32,8.49,6.16,19.36,7.22,40.68-8.64,42.08-9.77.5-5.13,1.16-11.78,2-19.61l-24.31,3.61C1177,1375.56,1177.37,1378.54,1177.69,1381.32Z"/><path class="cls-23" d="M1238.75,1076.16c-1.18-19.82-2.85-44.71-13.73-73.65a202.84,202.84,0,0,0-21.34-41.39,97.38,97.38,0,0,1-1.93-10.94c-1.64-13.89-.53-24.9,1.54-33.11q3-11.69,5.9-23.36-1-8.46-1.85-17.32-1.2-13-1.81-25.21a72.07,72.07,0,0,0-27.44-4.34l-37.55,3.63a264.19,264.19,0,0,0-10,25c-1,2.83-4.26,12.71-4.31,22.19,0,1.17,0,2,.06,2.29a36.4,36.4,0,0,0,4.42,15.12,92.79,92.79,0,0,1-.45,32.19,91.43,91.43,0,0,1-4.5,15.69,483.44,483.44,0,0,0-21.19,150.64,375.26,375.26,0,0,0,134.19,1.25A325,325,0,0,0,1238.75,1076.16Z"/><path class="cls-24" d="M1154.78,865.2a15.58,15.58,0,0,0-9-6c2.62-.87,9.26-3.22,9-5.35-.28-2.75-11.74-3.53-13.5-3.65-6.54,7.45-32.79,35.63-75.84,40a114.51,114.51,0,0,1-56.26-8.72l-9.5,14.43c10,10.6,27.8,26,53.63,32.3,45.51,11.11,96.72-10.63,131.3-54.76Z"/><path class="cls-9" d="M1178.09,846.84l-31.6,3.06-3,44.22,47.76-46.55A73,73,0,0,0,1178.09,846.84Z"/><path class="cls-18" d="M1152.39,832.16q.24,8.19.49,16.38a4.68,4.68,0,0,0-.39,3.12c1,3.7,7.63,4.69,10.11,5.06,10.1,1.5,19.35-4,24.05-7.32a56,56,0,0,1-6.31-37.21l-15-9.57Q1158.85,817.38,1152.39,832.16Z"/><path class="cls-20" d="M1152.39,832.16l1.86-4.25,21.49-9.19h0c.61,1.21,1.21,2.46,1.79,3.76a16,16,0,0,1,.76,3.76,24.5,24.5,0,0,1-6.92,9.92c-7.12,6.09-15.61,6-18.69,5.81Q1152.54,837.07,1152.39,832.16Z"/><path class="cls-18" d="M1145.83,777.71c-6.6,5.49-6.25,51.34-3.75,57.28s14,4.15,21.15,3.43,15.71-7,17.42-9.54.07-11,.07-11,6.33,3,6.79-2.92-3.72-14.84-5.86-11.47l-2.13,3.38S1153.06,771.68,1145.83,777.71Z"/><path class="cls-9" d="M1153.79,824.39l-13.07.49c.12,2.11.27,4,.46,5.59a7.56,7.56,0,0,0,12.62-5.91C1153.8,824.5,1153.79,824.45,1153.79,824.39Z"/><path class="cls-25" d="M900.28,921.8c13.68-13.13,73.65-23,145.55-23s131.86,9.89,145.55,23a11.39,11.39,0,0,0,2-2.49c-8.25-14.36-71.17-25.53-147.56-25.53S906.51,905,898.26,919.31A11.45,11.45,0,0,0,900.28,921.8Z"/><ellipse class="cls-26" cx="1045.83" cy="921.8" rx="145.55" ry="23.02"/><path class="cls-27" d="M1193.39,919.31a11.39,11.39,0,0,1-2,2.49c-13.69,13.14-73.65,23-145.55,23s-131.87-9.89-145.55-23a11.45,11.45,0,0,1-2-2.49,6.33,6.33,0,0,0-.92,3.21,6.09,6.09,0,0,0,.56,2.5c6.54,14.7,70.27,26.23,147.93,26.23s141.38-11.53,147.93-26.23a6.24,6.24,0,0,0,.55-2.5A6.33,6.33,0,0,0,1193.39,919.31Z"/><circle class="cls-5" cx="979.79" cy="872.44" r="15.36"/><circle class="cls-4" cx="942.48" cy="924.74" r="15.36"/><circle class="cls-4" cx="983.81" cy="925.48" r="15.36" transform="translate(-87.3 1748.34) rotate(-80.78)"/><circle class="cls-4" cx="1009.42" cy="898.77" r="15.36"/><circle class="cls-4" cx="1026.97" cy="913.41" r="15.36"/><circle class="cls-4" cx="1062.45" cy="929.86" r="15.36"/><circle class="cls-4" cx="1123.9" cy="892.56" r="15.36"/><circle class="cls-4" cx="1075.62" cy="902.43" r="15.36"/><circle class="cls-4" cx="1107.08" cy="925.84" r="15.36"/><circle class="cls-4" cx="956.02" cy="897.68" r="15.36"/><path class="cls-18" d="M1006.65,874.55a5.49,5.49,0,0,0-.24-.59c-.44-.89-1.39-1.87-4.8-5.12a92.08,92.08,0,0,0-7.57-6.11c-.82-.61-2.09-1.53-3.29-1.13a2.35,2.35,0,0,0-1.39,1.45,2.92,2.92,0,0,0,.74,3q2.88,2.82,5.75,5.65c-.15-.1-.31-.19-.47-.28l10.44,10.6C1006.77,880,1007.56,877.19,1006.65,874.55Z"/><circle class="cls-5" cx="925.66" cy="920.36" r="15.36"/><circle class="cls-5" cx="958.21" cy="909.02" r="15.36" transform="translate(-92.56 1709.25) rotate(-80.78)"/><circle class="cls-5" cx="961.14" cy="924.38" r="15.36" transform="translate(-280.58 438.18) rotate(-22.5)"/><circle class="cls-5" cx="1037.22" cy="937.55" r="15.36"/><circle class="cls-5" cx="1100.86" cy="907.19" r="15.36"/><circle class="cls-5" cx="1063.92" cy="902.43" r="15.36"/><circle class="cls-5" cx="1086.59" cy="927.67" r="15.36"/><circle class="cls-5" cx="1132.68" cy="909.02" r="15.36" transform="matrix(0.16, -0.99, 0.99, 0.16, 53.97, 1881.46)"/><circle class="cls-5" cx="1009.78" cy="929.5" r="15.36" transform="translate(-69.46 1777.36) rotate(-80.78)"/><circle class="cls-5" cx="1046.36" cy="908.65" r="15.36" transform="translate(-78.39 1718.25) rotate(-76.72)"/><circle class="cls-5" cx="994.79" cy="906.46" r="15.36"/><path class="cls-18" d="M1041.31,956.39c-3.55,0-13.45-.27-26.77-1a2.42,2.42,0,0,1-.25-4.48l11.06-.09L1013.5,950a2.65,2.65,0,0,1-2.75-2.7,2.6,2.6,0,0,1,2.3-2.24l12-.27-12.38-1.39a2.44,2.44,0,1,1,.63-4.84l12.57.21-12.39-2.25a2.36,2.36,0,0,1,.82-4.65l22.5,2.12-7.58-2.74a2.94,2.94,0,0,1-1.92-2.41,2.4,2.4,0,0,1,.67-1.9c.92-.86,2.46-.55,3.46-.33a87.42,87.42,0,0,1,9.43,2.41c4.45,1.54,5.72,2,6.49,2.65a3.9,3.9,0,0,1,.46.45c1.93,2,2.36,4.86,2.35,7.12l7.65.26q-1.23,6.91-2.45,13.82c-2.13-.27-4.15-.54-6-.79a9.94,9.94,0,0,1-3.61,2.88A10.43,10.43,0,0,1,1041.31,956.39Z"/><path class="cls-28" d="M1138.37,912.34c11.7-10.59,20.9-16,26.86-27.91,2.94-5.86,5.93-14.34,14.16-24.9,6.28-8.06,9.81-9.89,12.61-10.69,8-2.26,17.21,1.76,21.36,6.31,12.26,13.45-2.15,51-18.35,70.79-41.32,50.4-132.7,31.62-143.42,29.27q.08-9.51.14-19C1105.25,938.3,1129.46,920.41,1138.37,912.34Z"/><path class="cls-29" d="M388,592.51l-94.22-24.42c-10.07-6.6-49.62-32.5-50.85-33.14l-.27-.14c-.41-.21-1.17-.59-2.14-1a50.89,50.89,0,0,0-15.5-4.27,49.33,49.33,0,0,0-7.26-.25q.24,27.32.49,54.63a202.09,202.09,0,0,0,31.64,19.88c13.9,7,34.51,17.44,61.57,19.2,31.12,2,56.1-8.33,69.95-15.63Z"/><polygon class="cls-30" points="401.52 764.7 395 764.7 391.38 776.5 391.38 1446.95 401.52 1446.95 401.52 764.7"/><path class="cls-31" d="M274.78,1008.9v75.36h8.86c.16,0,.32,0,.47,0l.81-2.61V1008.9Z"/><rect class="cls-32" x="274.78" y="834.71" width="10.14" height="74.12"/><polygon class="cls-33" points="274.78 1156.92 274.78 1446.95 284.92 1446.95 284.92 1123.84 274.78 1156.92"/><polygon class="cls-34" points="274.78 1096.61 274.78 1114.77 280.34 1096.61 274.78 1096.61"/><rect class="cls-35" x="274.78" y="922.42" width="10.14" height="74.12"/><rect class="cls-36" x="274.78" y="764.7" width="10.14" height="57.65"/><path class="cls-37" d="M382.08,764.7l-17.67,57.65h3.24a6.18,6.18,0,1,1,0,12.36h-7L337.9,908.83h5a6.16,6.16,0,0,1,6.13,5.71l42.31-138V764.7Z"/><path class="cls-37" d="M342.94,921.18h-1.27a6.1,6.1,0,0,1-3.67,1.24h-4.26L311,996.54h2.27a6.18,6.18,0,0,1,0,12.36h-6.06l-22.31,72.79v2.7a6.18,6.18,0,0,1,0,12.09v27.36l62.83-205A6.1,6.1,0,0,1,342.94,921.18Z"/><polygon class="cls-37" points="391.38 776.5 395 764.7 391.38 764.7 391.38 776.5"/><path class="cls-37" d="M284.92,1084.39v-2.7l-.81,2.61A7.17,7.17,0,0,1,284.92,1084.39Z"/><path class="cls-37" d="M283.64,1096.61h-3.3l-5.56,18.16v42.15l10.14-33.08v-27.36A6.78,6.78,0,0,1,283.64,1096.61Z"/><polygon class="cls-37" points="284.92 834.71 360.62 834.71 364.41 822.35 284.92 822.35 284.92 834.71"/><path class="cls-37" d="M274.78,834.71V822.35H204.37l-3.76,12.29c.22,0,.44.07.67.07Z"/><path class="cls-37" d="M367.65,834.71a6.18,6.18,0,1,0,0-12.36h-3.24l-3.79,12.36Z"/><path class="cls-37" d="M201.28,822.35a6.16,6.16,0,0,0-.67,12.29l3.76-12.29Z"/><path class="cls-37" d="M349.12,915c0-.16,0-.31-.05-.47l-1.32,4.29A6.1,6.1,0,0,0,349.12,915Z"/><polygon class="cls-37" points="274.78 910.07 274.78 908.83 177.87 908.83 177.49 910.07 274.78 910.07"/><polygon class="cls-37" points="284.92 910.07 337.52 910.07 337.9 908.83 284.92 908.83 284.92 910.07"/><rect class="cls-37" x="274.78" y="908.83" width="10.14" height="1.24"/><path class="cls-37" d="M342.94,908.83h-5l-.38,1.24H338a6.15,6.15,0,0,1,3.67,11.11h1.27a6.1,6.1,0,0,0,4.81-2.35l1.32-4.29A6.16,6.16,0,0,0,342.94,908.83Z"/><path class="cls-37" d="M177.87,908.83h-1.3a6.1,6.1,0,0,0-3.67,1.24h4.59Z"/><path class="cls-37" d="M274.78,921.18H176.57a6.16,6.16,0,0,1-2.35-.47l-.52,1.71H274.78Z"/><polygon class="cls-37" points="284.92 921.18 284.92 922.42 333.74 922.42 334.11 921.18 284.92 921.18"/><rect class="cls-37" x="274.78" y="921.18" width="10.14" height="1.24"/><path class="cls-37" d="M333.74,922.42H338a6.1,6.1,0,0,0,3.67-1.24h-7.56Z"/><path class="cls-37" d="M170.4,915a6.14,6.14,0,0,1,2.5-4.94h-1.27a6.18,6.18,0,0,0,0,12.35h2.07l.52-1.71A6.16,6.16,0,0,1,170.4,915Z"/><path class="cls-37" d="M177.49,910.07l-3.27,10.64a6.16,6.16,0,0,0,2.35.47h98.21V910.07Z"/><polygon class="cls-37" points="284.92 921.18 334.11 921.18 337.52 910.07 284.92 910.07 284.92 921.18"/><rect class="cls-37" x="274.78" y="910.07" width="10.14" height="11.12"/><path class="cls-37" d="M341.67,921.18A6.15,6.15,0,0,0,338,910.07h-.48l-3.41,11.11Z"/><path class="cls-37" d="M170.4,915a6.16,6.16,0,0,0,3.82,5.7l3.27-10.64H172.9A6.14,6.14,0,0,0,170.4,915Z"/><polygon class="cls-37" points="274.78 996.54 150.98 996.54 147.19 1008.9 274.78 1008.9 274.78 996.54"/><polygon class="cls-37" points="284.92 1008.9 307.23 1008.9 311.01 996.54 284.92 996.54 284.92 1008.9"/><rect class="cls-37" x="274.78" y="996.54" width="10.14" height="12.35"/><path class="cls-37" d="M313.29,1008.9a6.18,6.18,0,0,0,0-12.36H311l-3.79,12.36Z"/><path class="cls-37" d="M146.93,996.54a6.18,6.18,0,1,0,0,12.36h.26L151,996.54Z"/><polygon class="cls-37" points="274.78 1084.26 124.09 1084.26 120.31 1096.61 274.78 1096.61 274.78 1084.26"/><path class="cls-37" d="M283.64,1084.26h-8.86v12.35h5.56l3.77-12.31C284,1084.29,283.8,1084.26,283.64,1084.26Z"/><path class="cls-37" d="M289.82,1090.43a6.18,6.18,0,0,0-4.9-6v12.09A6.18,6.18,0,0,0,289.82,1090.43Z"/><path class="cls-37" d="M280.34,1096.61h3.3a6.78,6.78,0,0,0,1.28-.13v-12.09a7.17,7.17,0,0,0-.81-.09Z"/><path class="cls-37" d="M117.28,1084.26a6.18,6.18,0,1,0,0,12.35h3l3.78-12.35Z"/><path class="cls-37" d="M97.21,1172l-3.79,12.35h160l3.76-12.27a4.78,4.78,0,0,0-.76-.08Z"/><path class="cls-37" d="M256.46,1184.32a6.16,6.16,0,0,0,.76-12.27l-3.76,12.27Z"/><path class="cls-37" d="M90.1,1172a6.18,6.18,0,1,0,0,12.35h3.32L97.21,1172Z"/><path class="cls-37" d="M69.94,1260.92l-3.78,12.35h160L230,1261a5.23,5.23,0,0,0-.68-.07Z"/><path class="cls-37" d="M229.28,1273.27A6.16,6.16,0,0,0,230,1261l-3.77,12.28Z"/><path class="cls-37" d="M62.92,1260.92a6.18,6.18,0,1,0,0,12.35h3.24l3.78-12.35Z"/><polygon class="cls-37" points="39.65 1359.75 199.68 1359.75 203.47 1347.39 43.44 1347.39 39.65 1359.75"/><path class="cls-37" d="M204.58,1359.75a6.18,6.18,0,0,0,0-12.35h-1.11l-3.79,12.35Z"/><path class="cls-37" d="M38.21,1347.4a6.18,6.18,0,1,0,0,12.35h1.44l3.79-12.35Z"/><path class="cls-37" d="M257.22,1172.05a6.16,6.16,0,0,1-.76,12.27h-3L230,1261a6.16,6.16,0,0,1-.68,12.28h-3.09l-22.72,74.13h1.11a6.18,6.18,0,0,1,0,12.35h-4.9l-23.47,76.59L173,1447h12.92l88.9-290v-42.15Z"/><path class="cls-37" d="M146.93,996.54h4l22.72-74.12h-2.07a6.18,6.18,0,0,1,0-12.35h1.27a6.1,6.1,0,0,1,3.67-1.24h1.3l22.74-74.19a6.16,6.16,0,0,1,.67-12.29h3.09L222,764.7H209.12L0,1447H12.92l3.25-10.61,23.48-76.59H38.21a6.18,6.18,0,1,1,0-12.35h5.23l22.72-74.13H62.92a6.18,6.18,0,1,1,0-12.35h7l23.48-76.6H90.1a6.18,6.18,0,1,1,0-12.35h7.11l23.1-75.36h-3a6.18,6.18,0,1,1,0-12.35h6.81l23.1-75.36h-.26a6.18,6.18,0,1,1,0-12.36Z"/><path class="cls-38" d="M220.24,749.52a6.17,6.17,0,0,1,4.09,7.71L222,764.7h52.74v-9.28h10.14v9.28h97.16l3.4-11.09a6.16,6.16,0,0,1,12,1.81h4v9.28h5.08V743.59H208.87V764.7h.25l3.4-11.09A6.18,6.18,0,0,1,220.24,749.52Z"/><path class="cls-38" d="M397.53,755.42a6.26,6.26,0,0,1-.24,1.81L395,764.7h6.52v-9.28Z"/><rect class="cls-38" x="274.78" y="755.42" width="10.14" height="9.28"/><path class="cls-38" d="M391.38,755.42h6.15a6.16,6.16,0,0,0-12-1.81l-3.4,11.09h9.3Z"/><path class="cls-38" d="M397.53,755.42h-6.15v9.28H395l2.29-7.47A6.26,6.26,0,0,0,397.53,755.42Z"/><path class="cls-38" d="M224.33,757.23a6.18,6.18,0,0,0-11.81-3.62l-3.4,11.09H222Z"/><rect class="cls-37" x="274.78" y="822.35" width="10.14" height="12.35"/><path class="cls-18" d="M257.47,896.06l19.62-36-19.48-8.82Q251.31,873,245,894.72Z"/><path class="cls-39" d="M274.38,907.93a154.28,154.28,0,0,0,18.26-.86,3.89,3.89,0,0,0-1.17-1.18c-8.76-4.89-15.56-8.69-19.89-11.21L265,891.52c-3.23-1.57-4.88-2.43-6.58-1.81-1.21.45-1.05,1.13-2.79,2a6.75,6.75,0,0,1-4.91.86,6,6,0,0,1-3.39-2.5s-7.3,4.13-4,15.4c1.74.33,4.21.76,7.18,1.17A156.56,156.56,0,0,0,274.38,907.93Z"/><path class="cls-7" d="M292.64,907.07a154.28,154.28,0,0,1-18.26.86,156.56,156.56,0,0,1-24-1.24c-3-.41-5.44-.84-7.18-1.17,0,0-3.08,3.65,1.85,6.49l47.74-1.22a3.91,3.91,0,0,0,.23-2.83A3.87,3.87,0,0,0,292.64,907.07Z"/><path class="cls-40" d="M242.33,880.88q26.16-61.59,52.31-123.19l-140-6.9q-1.24-39.62-2.48-79.22l90.26-4.17c10,.39,110.83,4.84,127.84,31.82a42.4,42.4,0,0,1,4.3,9.32c5.68,18.91-5.64,37.8-13.08,49.38-16,24.83-49.06,70.59-95.13,127.43Z"/><path class="cls-18" d="M170.7,1076q1.83-20.18,3.68-40.34l-22.35-.93q3.12,21.43,6.25,42.89Z"/><path class="cls-39" d="M185.36,1089.23a154.25,154.25,0,0,0,18.26-.85,4,4,0,0,0-1.17-1.18c-8.76-4.9-15.56-8.69-19.89-11.21l-6.62-3.17c-3.23-1.57-4.88-2.43-6.58-1.8-1.21.44-1.05,1.13-2.79,2a6.79,6.79,0,0,1-4.91.87,6.09,6.09,0,0,1-3.39-2.51s-7.3,4.14-4.05,15.4c1.74.33,4.21.77,7.18,1.17A155.29,155.29,0,0,0,185.36,1089.23Z"/><path class="cls-7" d="M203.62,1088.38a154.25,154.25,0,0,1-18.26.85,155.29,155.29,0,0,1-24-1.24c-3-.4-5.44-.84-7.18-1.17,0,0-3.08,3.65,1.85,6.49l47.74-1.22a3.9,3.9,0,0,0,.23-2.83A3.79,3.79,0,0,0,203.62,1088.38Z"/><rect class="cls-41" x="251.21" y="867.27" width="10.52" height="28.63" transform="translate(-661.59 870.25) rotate(-73.07)"/><path class="cls-42" d="M142.56,660.81l105.05,1.71c-1.28,32.54-3.66,66.39-7.39,101.44A1538.22,1538.22,0,0,1,178,1062.09l-26.73-2a2356.76,2356.76,0,0,0,2.22-255.5C151.25,754.43,147.45,706.45,142.56,660.81Z"/><rect class="cls-43" x="149.14" y="1054.46" width="31.84" height="10.52"/><path class="cls-44" d="M225.38,529.72a43,43,0,0,0-14.67-.55l-19.44,2.21a37.65,37.65,0,0,1-14.76-3.23L156.41,535q-4.11,22-8.2,44.07l-1,7.26q-1.19,10.58-2.34,21.15c-1.44,13-2.16,19.58-2.33,21.15a431.5,431.5,0,0,0-2.2,43.19l110.82-3.85q-6.41-33.18-12.62-66.38Q231.87,565.67,225.38,529.72Z"/><path class="cls-18" d="M179.55,502.21a52,52,0,0,1,29.86,8.64q.53,9.71,1,19.41a38.9,38.9,0,0,1-34.7.06Z"/><path class="cls-20" d="M209.6,516.86l-1-2.36a25.58,25.58,0,0,0-11.42-4.18,25.21,25.21,0,0,0-7.78.37,24.54,24.54,0,0,0,20.65,14.76Q209.82,521.16,209.6,516.86Z"/><path class="cls-45" d="M225.51,470.74a14.2,14.2,0,0,0,5.89-4.33,14.56,14.56,0,0,0,2-14,13,13,0,0,0-4.49-6c-5-3.5-9.33-.61-19.56-1.07-9.89-.45-10.18-3.35-17.55-2.57-2.8.3-10,1.08-15.31,6.72-7.18,7.68-5.18,19-4.84,20.8a16.53,16.53,0,0,0-6.54,8c-3.6,10,4.72,22.76,15,27.46A25.18,25.18,0,0,0,193,507.79C207.08,506.21,219.49,491.26,225.51,470.74Z"/><path class="cls-18" d="M189.48,496.3A6.36,6.36,0,0,1,184.9,495c-3.9-3.32-1.6-11.85,1.5-13.3a4.77,4.77,0,0,1,3-.37,3.94,3.94,0,0,1,1.39.72c2.52,2,2.66,6.64,2.66,6.64l2.1-1.33c-1.14-10.59,5.17-19.75,13.52-21.7,8.65-2,15.8,4.54,16.4,5.12.6,2.94,1.14,6.06,1.6,9.35.62,4.53,1,8.82,1.21,12.81a3.18,3.18,0,0,1,1.06,2.46c-.14.89-.88,1.23-1.57,2.26a7.08,7.08,0,0,0-1,3.4,82.38,82.38,0,0,1-3.62,13.74c-1.54,4.18-2.32,6.26-3.86,7.41-6.85,5.09-20.85-5.34-26.26-9.37-2.41-1.79-5.71-4.59-5.57-7.83a29.07,29.07,0,0,1,.79-3.84C188.73,499.1,189.17,497.45,189.48,496.3Z"/><path class="cls-18" d="M189.48,496.3A6.36,6.36,0,0,1,184.9,495c-3.9-3.32-1.6-11.85,1.5-13.3a4.77,4.77,0,0,1,3-.37,3.94,3.94,0,0,1,1.39.72c2.52,2,2.66,6.64,2.66,6.64l2.1-1.33c-1.14-10.59,5.17-19.75,13.52-21.7,8.65-2,15.8,4.54,16.4,5.12.6,2.94,1.14,6.06,1.6,9.35.62,4.53,1,8.82,1.21,12.81a3.18,3.18,0,0,1,1.06,2.46c-.14.89-.88,1.23-1.57,2.26a7.08,7.08,0,0,0-1,3.4,82.38,82.38,0,0,1-3.62,13.74c-1.54,4.18-2.32,6.26-3.86,7.41-6.85,5.09-20.85-5.34-26.26-9.37-2.41-1.79-5.71-4.59-5.57-7.83a29.07,29.07,0,0,1,.79-3.84C188.73,499.1,189.17,497.45,189.48,496.3Z"/><path class="cls-9" d="M215.58,505.69a9.16,9.16,0,0,0,7.32,10.11c.28-.76.57-1.59.9-2.54.53-1.54,1.21-3.85,1.85-6.31Z"/><path class="cls-9" d="M173.29,529.06l1.85-6.52A68.14,68.14,0,0,0,190,526c2.1.25,4.1.39,6,.44l-.15,8h0S180.19,535.59,173.29,529.06Z"/><path class="cls-9" d="M201.87,526c.24,2.53.49,5.06.73,7.6,0,0,5.32-1.35,7.84-3.38-.08-1.75-.16-3.49-.25-5.24a20.82,20.82,0,0,1-3.65.88A21.09,21.09,0,0,1,201.87,526Z"/><polygon class="cls-46" points="364.72 609.02 336.62 582.28 402.16 514.37 430.27 541.12 364.72 609.02"/><path class="cls-47" d="M638.2,297.75C570.86,233.68,464,235.94,399.42,302.8a166.83,166.83,0,0,0,5.08,237.08c67.34,64.08,174.25,61.82,238.78-5A166.85,166.85,0,0,0,638.2,297.75ZM625.63,518c-55.19,57.18-146.62,59.11-204.21,4.31a142.67,142.67,0,0,1-4.35-202.75c55.19-57.19,146.62-59.12,204.21-4.32A142.69,142.69,0,0,1,625.63,518Z"/><path class="cls-48" d="M621.28,315.28c-57.59-54.8-149-52.87-204.21,4.32a142.67,142.67,0,0,0,4.35,202.75c57.59,54.8,149,52.87,204.21-4.31A142.69,142.69,0,0,0,621.28,315.28Zm-2.15,196.58c-51.75,53.61-137.48,55.43-191.49,4a133.79,133.79,0,0,1-4.07-190.12c51.75-53.62,137.48-55.43,191.49-4A133.81,133.81,0,0,1,619.13,511.86Z"/><ellipse class="cls-49" cx="521.35" cy="418.82" rx="135.43" ry="134.47"/><path class="cls-50" d="M351.25,543.92,241.47,657.65c-11.72,13.57-10.21,34.64,3.41,47.61s34.89,13.56,48.05,1.35L402.71,592.88Z"/><path class="cls-51" d="M603.25,334a202.82,202.82,0,0,0-185.76,45.9c12.33-42.23,47.46-73.5,89.57-79.76C561.76,292,599.71,330.27,603.25,334Z"/><path class="cls-12" d="M315.22,607.13a9.21,9.21,0,0,1,1.48-5.75c.71-1,1.37-1.43,6.56-4a89.83,89.83,0,0,1,9.13-3.64c1-.35,2.48-.86,3.51-.12a2.43,2.43,0,0,1,.92,1.82,3,3,0,0,1-1.61,2.66L328,601.82l22.26-5.06a2.39,2.39,0,0,1,1.43,4.56l-12.12,3.86,12.56-1.84a2.55,2.55,0,0,1,3.05,1.47,2.57,2.57,0,0,1-1.79,3.3l-12.22,3,12.11-1.3a2.63,2.63,0,0,1,2.59,1.94,2.68,2.68,0,0,1-2.4,3.07l-11.77,2.33,11.09-1.36a2.44,2.44,0,0,1,.34,4.52c-13.25,2.47-23.13,4.06-26.69,4.5a10.78,10.78,0,0,1-4.66-.36,10.26,10.26,0,0,1-4-2.41l-5.86,1.56L309,607.54C311.09,607.41,313.18,607.25,315.22,607.13Z"/><path class="cls-52" d="M173.28,529.06a37.46,37.46,0,0,0-15.23,3.71c-12.2,6-17.28,17.11-19.05,21-8.62,18.93-.94,46.56,13.59,63.93,31.82,38,100.36,31.87,141.35,15.72a151.75,151.75,0,0,0,19.48-9.33q-.87-9.06-1.73-18.12c-4.89-.29-12.1-.73-20.85-1.28-10.79-.68-16.23-1-18.06-1.21C259,602,242.58,599.33,223,591.28c-17.75-7.28-26.41-14.54-32.37-21.45C177.57,554.74,174.29,537.67,173.28,529.06Z"/><path class="cls-12" d="M394.38,607.27l-11.26-7.56a2.78,2.78,0,0,1-.6-4,2.75,2.75,0,0,1,3.64-.36l12,6.51C398.55,606.84,394.38,607.27,394.38,607.27Z"/><path class="cls-12" d="M391.61,613.19l-11.06-6.72a2.89,2.89,0,0,1-1.3-4,2.83,2.83,0,0,1,3.35-1l11.78,5.8A4.78,4.78,0,0,1,391.61,613.19Z"/><path class="cls-12" d="M389.26,618.24c-3.13-1.8-6.62-3.84-10.4-6.08a2.63,2.63,0,0,1,2-4.45l10.73,5.48A4.78,4.78,0,0,1,389.26,618.24Z"/><path class="cls-12" d="M398.19,601.86l-10.84-8.4a2.58,2.58,0,0,1,3.14-4.08l11.44,7.4C401.42,601.06,398.19,601.86,398.19,601.86Z"/></g></g></svg>