<svg xmlns="http://www.w3.org/2000/svg" width="698" height="697.079" viewBox="0 0 698 697.079">
  <g id="Group_3156" data-name="Group 3156" transform="translate(-804 -4712.364)">
    <path id="Path_5360" data-name="Path 5360" d="M431.4,341.771c33.351,2.67,62.192,20.3,87.481,45.423q106.25,105.569,211.877,211.756a225.861,225.861,0,0,1,18.458,20.6c11.523,14.8,18.121,31.856,21.24,50.288.778,4.576,1.218,28.253,1.072,29.32-.752,5.539-.985,11.182-2.173,16.617a116.058,116.058,0,0,1-31.969,58.4Q623.149,888.348,508.938,1002.559a103.366,103.366,0,0,1-10.676,9.587c-28.24,21.288-59.556,30.413-94.986,24.662-24.749-4.018-46.145-14.53-63.743-32.042Q232.382,898.147,125.707,791.044c-9.4-9.415-19.041-18.678-27.609-28.823-14.98-17.728-22.312-39.007-24.187-61.795a137.065,137.065,0,0,1,2.009-34.194c3.677-21.258,12.832-40.416,28.084-55.8q77.811-78.492,156.244-156.37c38.627-38.506,79.423-96.537,135.19-109.46A117.052,117.052,0,0,1,431.4,341.771Z" transform="translate(730.44 4370.947)" fill="#fff"/>
    <text id="_" data-name="“" transform="translate(921 5020)" fill="none" stroke="#141414" stroke-width="2" font-size="250" font-family="Anton-Regular, Anton" letter-spacing="0.02em"><tspan x="-58" y="0">“</tspan></text>
    <text id="_2" data-name="“" transform="translate(917 5017)" fill="#00e394" font-size="250" font-family="Anton-Regular, Anton" letter-spacing="0.02em"><tspan x="-58" y="0">“</tspan></text>
    <g id="Group_527" data-name="Group 527" transform="translate(2767 10339) rotate(180)">
      <text id="_3" data-name="“" transform="translate(1384 5242)" fill="none" stroke="#141414" stroke-width="2" font-size="250" font-family="Anton-Regular, Anton" letter-spacing="0.02em"><tspan x="-58" y="0">“</tspan></text>
      <text id="_4" data-name="“" transform="translate(1380 5239)" fill="#00e394" font-size="250" font-family="Anton-Regular, Anton" letter-spacing="0.02em"><tspan x="-58" y="0">“</tspan></text>
    </g>
  </g>
</svg>
